# xmcd CD database file
#
# Track frame offsets:
#	150
#	23732
#	41724
#	65568
#	85256
#	106205
#	133650
#	154073
#	178255
#	198752
#	221335
#	245590
#	268128
#	291171
#
# Disc length: 4245 seconds
#
# Revision: 3
# Processed by: cddbd v1.5.2PL0 Copyright (c) Steve Scherf et al.
# Submitted via: CDex 1.79
#
DISCID=cc10930e
DTITLE=BEGIN - SINGLE daizensyuu DISC-2
DYEAR=2005
DGENRE=Blues
TTITLE0=?????
TTITLE1=????????
TTITLE2=???????
TTITLE3=?????
TTITLE4=??
TTITLE5=??
TTITLE6=????????????
TTITLE7=????
TTITLE8=?????????????
TTITLE9=?????????
TTITLE10=?????
TTITLE11=????
TTITLE12=??
TTITLE13=??????
EXTD=YEAR: 2005
EXTT0=
EXTT1=
EXTT2=
EXTT3=
EXTT4=
EXTT5=
EXTT6=
EXTT7=
EXTT8=
EXTT9=
EXTT10=
EXTT11=
EXTT12=
EXTT13=
PLAYORDER=
